<svg width="319" height="153" viewBox="0 0 319 153" fill="none" xmlns="http://www.w3.org/2000/svg">
<path d="M0.672015 148.06L0.501687 143.211C0.33136 138.361 4.2489 134.724 9.35872 134.573C14.4685 134.573 18.5564 138.058 18.5564 142.908L18.7267 147.909L0.672015 148.06ZM15.8312 142.908C15.8312 139.422 12.9356 137.149 9.35872 137.301C5.78184 137.452 3.0566 139.725 3.22693 143.211V145.484L15.8312 145.181V142.908Z" fill="white"/>
<path d="M1.35327 126.844L1.69393 124.268L19.7486 126.086L19.408 128.662L1.35327 126.844Z" fill="white"/>
<path d="M23.6665 107.597L8.50736 113.659L21.2819 116.387L20.6006 118.963L3.05688 115.326L3.73818 113.053L18.727 106.991L6.12278 104.264L6.80408 101.687L24.3477 105.324L23.6665 107.597Z" fill="white"/>
<path d="M12.9354 85.7748C14.4683 82.4409 18.2154 80.4706 21.4518 80.7737L20.0891 83.5017C18.2154 83.6531 16.3419 84.8655 15.4903 86.8356C13.9573 89.8665 15.4903 93.049 18.8969 94.413C22.3034 95.6252 25.8802 94.5645 27.4132 91.382C28.7759 88.6542 27.5835 86.0779 25.0286 84.7141L22.644 89.715L20.0891 88.8057L23.6661 81.2285C30.3087 83.1986 32.1824 88.048 30.1384 92.4428C28.0945 96.8376 22.644 98.8077 17.8748 96.9893C12.9354 94.8676 10.8914 90.1696 12.9354 85.7748Z" fill="white"/>
<path d="M30.8211 62.74L27.7552 66.5285L25.3706 65.0131L33.2057 55.1626L35.5903 56.6781L32.5244 60.4668L44.9581 68.3471L43.255 70.4687L30.8211 62.74Z" fill="white"/>
<path d="M38.6562 49.4038L40.7002 47.4337L46.1507 51.98L52.2824 46.2213L46.8319 41.6749L48.8759 39.7048L61.9911 50.7678L59.9471 52.7379L54.3264 48.0399L48.1946 53.7986L53.8154 58.4965L51.7714 60.4667L38.6562 49.4038Z" fill="white"/>
<path d="M56.5405 33.6434L65.0568 27.5815L66.7602 29.5516L60.6285 33.9465L63.524 37.129L68.4635 33.6434L70.1667 35.6135L65.2272 39.0991L68.2932 42.5847L74.4249 38.1898L76.1282 40.1599L67.6118 46.2217L56.5405 33.6434Z" fill="white"/>
<path d="M81.7488 17.8823L86.6881 15.6092C91.4573 13.4875 96.9078 15.003 99.2924 18.9431C101.677 23.0349 99.6332 27.7329 94.864 30.0061L89.9245 32.2793L81.7488 17.8823ZM93.6716 27.8844C97.0783 26.3689 98.2705 23.1864 96.5671 20.3072C94.864 17.4278 91.4573 16.3668 88.0508 17.8823L85.6662 18.9431L91.287 28.9451L93.6716 27.8844Z" fill="white"/>
<path d="M103.719 8.94124L114.108 5.75879L114.96 8.18352L107.466 10.4567L108.999 14.3969L115.131 12.5783L115.982 15.0031L109.85 16.8216L111.383 20.9134L118.878 18.6402L119.729 21.0649L109.51 24.2473L103.719 8.94124Z" fill="white"/>
<path d="M130.631 2.12185C134.889 1.36412 138.806 3.3342 140.339 6.21357L137.103 6.66821C135.911 5.00121 133.526 4.09194 130.971 4.54658C127.224 5.15276 125.18 8.03213 125.861 11.2146C126.543 14.397 129.609 16.5187 133.356 15.9125C135.911 15.4578 137.784 13.9424 138.125 11.9723L141.361 11.5177C141.191 14.7001 138.295 17.8826 133.867 18.4888C128.587 19.3981 123.817 16.5187 122.796 11.8208C121.944 7.27439 125.35 3.03112 130.631 2.12185Z" fill="white"/>
<path d="M148.005 0.454636L158.906 0L159.076 2.57628L151.241 2.87937L151.412 6.97109L157.714 6.81956L157.884 9.39582L151.582 9.54737L151.752 13.9422L159.587 13.6391L159.758 16.2154L148.857 16.6701L148.005 0.454636Z" fill="white"/>
<path d="M179.518 17.4278L170.66 4.84946L169.298 16.367L166.402 16.0639L168.276 0L170.83 0.303092L179.687 12.7298L181.05 1.21237L184.116 1.51546L182.242 17.5792L179.518 17.4278Z" fill="white"/>
<path d="M196.72 6.66811L191.611 5.45574L192.291 3.03101L205.407 6.06192L204.725 8.48665L199.615 7.27428L195.869 20.4587L192.974 19.8525L196.72 6.66811Z" fill="white"/>
<path d="M213.413 8.33496L219.545 10.4566C222.611 11.5174 223.803 14.0937 222.78 16.5184C221.757 18.6401 219.885 19.5493 217.159 19.0947L220.396 28.036L216.99 26.8235L213.753 18.0339L212.561 17.5792L209.495 24.0956L206.769 23.0349L213.413 8.33496ZM216.308 16.6699C218.011 17.2761 219.203 16.973 219.885 15.6091C220.396 14.3968 219.714 13.336 218.182 12.7298L215.116 11.669L213.242 15.6091L216.308 16.6699Z" fill="white"/>
<path d="M238.791 19.0947L241.005 20.307L238.62 37.7347L235.894 36.3709L236.576 31.8245L229.593 28.1874L225.335 30.9152L222.609 29.5513L238.791 19.0947ZM237.087 29.0968L237.939 22.5802L231.976 26.3688L237.087 29.0968Z" fill="white"/>
<path d="M254.461 28.1875L256.844 29.8545L247.306 40.4627L253.778 45.0091L252.075 46.9791L243.219 40.7658L254.461 28.1875Z" fill="white"/>
<path d="M269.109 39.2502L271.323 41.0688L258.719 52.5864L256.504 50.7678L269.109 39.2502Z" fill="white"/>
<path d="M264.68 55.6171L280.862 54.4047L275.07 48.1914L277.284 46.5244L285.631 55.4657L284.097 56.6779L267.917 57.8903L274.049 64.4068L271.835 66.0737L263.148 56.8295L264.68 55.6171Z" fill="white"/>
<path d="M290.911 61.9819L296.701 70.1653L294.317 71.5292L290.06 65.619L286.142 67.8922L289.548 72.7416L287.163 74.1055L283.756 69.256L279.67 71.5292L283.927 77.4395L281.542 78.8035L275.752 70.6199L290.911 61.9819Z" fill="white"/>
<path d="M301.129 77.2883L303.514 81.8347C305.729 86.2296 303.854 90.9274 299.256 92.8975C294.656 94.8676 289.378 92.8975 286.992 88.5028L284.608 83.9564L301.129 77.2883ZM289.378 87.4418C290.91 90.6243 294.487 91.6851 297.722 90.3212C300.959 88.9573 302.322 85.9265 300.788 82.744L299.768 80.6223L288.355 85.3203L289.378 87.4418Z" fill="white"/>
<path d="M313.393 106.385L315.776 115.781L313.052 116.387L311.349 109.567L306.749 110.477L308.112 115.781L305.386 116.387L304.025 111.083L296.53 112.598L295.848 110.022L313.393 106.385Z" fill="white"/>
<path d="M299.256 130.936C298.916 127.147 301.47 124.268 306.069 123.965L317.141 123.207L317.31 125.783L306.24 126.541C303.345 126.692 301.982 128.359 302.151 130.633C302.322 132.906 304.196 134.27 306.92 133.967L317.992 133.209L318.162 135.937L307.091 136.694C302.662 137.149 299.596 134.573 299.256 130.936Z" fill="white"/>
<path d="M315.267 147.757L315.607 143.059L318.504 143.21L317.822 155.182L314.927 155.03L315.267 150.333L299.938 149.575L300.108 146.848L315.267 147.757Z" fill="white"/>
<path d="M229.935 135.634L165.211 152.152V174.581L187.184 168.974C186.842 171.853 185.99 174.581 184.798 177.309C181.392 184.582 175.089 190.341 166.914 193.22C158.738 196.251 149.711 196.251 141.535 193.22C133.359 190.189 126.887 184.582 123.651 177.309C116.667 162.305 124.673 145.029 141.535 138.664C145.623 137.149 149.711 136.391 154.139 136.391H154.31C176.623 136.391 194.677 120.327 194.677 100.475C194.677 80.6225 176.623 64.5586 154.31 64.5586C131.997 64.5586 113.942 80.774 113.942 100.626C113.942 108.81 117.008 116.236 122.118 122.297C98.9534 135.785 89.0743 162.457 99.9753 186.099C105.937 198.979 117.349 208.982 131.827 214.438C139.151 217.165 146.645 218.377 154.31 218.377C161.974 218.377 169.469 217.014 176.794 214.438C200.638 205.648 214.605 184.431 212.902 162.609L230.105 158.214V135.634H229.935ZM154.31 87.442C162.486 87.442 169.128 93.3523 169.128 100.626C169.128 107.901 162.486 113.811 154.31 113.811H154.139C146.134 113.659 139.491 107.901 139.491 100.626C139.491 93.3523 146.134 87.442 154.31 87.442Z" fill="#08080D"/>
</svg>
