<svg width="496" height="452" viewBox="0 0 496 452" fill="none" xmlns="http://www.w3.org/2000/svg">
<g clip-path="url(#clip0_1_944)">
<path d="M0.44693 437.407L0.00461377 423.081C-0.437702 408.754 9.73559 398.009 23.0051 397.561C36.2746 397.561 46.8902 407.859 46.8902 422.185L47.3324 436.959L0.44693 437.407ZM39.8131 422.185C39.8131 411.888 32.2937 405.172 23.0051 405.62C13.7164 406.068 6.63936 412.783 7.08169 423.081V429.796L39.8131 428.901V422.185Z" fill="black"/>
<path d="M2.21582 374.728L3.10045 367.117L49.9859 372.49L49.1014 380.101L2.21582 374.728Z" fill="black"/>
<path d="M60.1603 317.87L20.7942 335.778L53.9678 343.837L52.1987 351.448L6.64014 340.703L8.40937 333.987L47.3331 316.079L14.6018 308.021L16.3711 300.41L61.9294 311.154L60.1603 317.87Z" fill="black"/>
<path d="M32.2926 253.4C36.2735 243.551 46.0042 237.73 54.4086 238.626L50.8698 246.685C46.0042 247.132 41.1389 250.714 38.9274 256.534C34.9465 265.488 38.9274 274.89 47.7738 278.919C56.62 282.501 65.9085 279.367 69.8895 269.965C73.4282 261.907 70.3318 254.296 63.697 250.266L57.5046 265.04L50.8698 262.354L60.1587 239.969C77.4088 245.789 82.2744 260.116 76.9665 273.099C71.6586 286.082 57.5046 291.903 45.1197 286.53C32.2926 280.262 26.9848 266.383 32.2926 253.4Z" fill="black"/>
<path d="M78.74 185.349L70.7784 196.542L64.5859 192.065L84.9325 162.964L91.1249 167.441L83.1633 178.634L115.452 201.914L111.029 208.182L78.74 185.349Z" fill="black"/>
<path d="M99.0869 145.951L104.395 140.131L118.549 153.562L134.472 136.549L120.318 123.118L125.626 117.298L159.684 149.981L154.376 155.801L139.78 141.922L123.857 158.935L138.453 172.813L133.145 178.634L99.0869 145.951Z" fill="black"/>
<path d="M145.529 99.3907L167.645 81.4824L172.068 87.3025L156.145 100.286L163.664 109.688L176.492 99.3907L180.914 105.211L168.087 115.508L176.049 125.805L191.973 112.822L196.396 118.642L174.28 136.55L145.529 99.3907Z" fill="black"/>
<path d="M210.992 52.8289L223.818 46.1134C236.203 39.8456 250.357 44.3226 256.55 55.9627C262.742 68.0509 257.435 81.9299 245.05 88.6454L232.223 95.361L210.992 52.8289ZM241.954 82.3774C250.8 77.9002 253.896 68.4984 249.473 59.9924C245.05 51.486 236.203 48.3517 227.357 52.8289L221.165 55.9627L235.761 85.5112L241.954 82.3774Z" fill="black"/>
<path d="M268.044 26.4149L295.025 17.0132L297.237 24.1764L277.775 30.892L281.756 42.5322L297.679 37.1598L299.891 44.3231L283.967 49.6954L287.948 61.7836L307.41 55.0681L309.622 62.2311L283.083 71.6329L268.044 26.4149Z" fill="black"/>
<path d="M337.931 6.26823C348.988 4.02971 359.162 9.84984 363.143 18.3562L354.739 19.6993C351.643 14.7746 345.45 12.0884 338.815 13.4315C329.084 15.2223 323.776 23.7287 325.546 33.1304C327.315 42.5322 335.277 48.8002 345.008 47.0093C351.643 45.666 356.508 41.1891 357.393 35.3689L365.797 34.0258C365.354 43.4276 357.835 52.8294 346.335 54.6203C332.623 57.3066 320.238 48.8002 317.584 34.9213C315.372 21.4901 324.219 8.95445 337.931 6.26823Z" fill="black"/>
<path d="M383.05 1.34311L411.358 0L411.801 7.61097L391.454 8.50636L391.896 20.5943L408.262 20.1467L408.705 27.7576L392.339 28.2053L392.781 41.1887L413.128 40.2933L413.57 47.9042L385.262 49.2476L383.05 1.34311Z" fill="black"/>
<path d="M464.884 51.486L441.882 14.3265L438.344 48.3522L430.824 47.4567L435.689 0L442.324 0.895408L465.323 37.6071L468.863 3.58163L476.825 4.47703L471.958 51.9334L464.884 51.486Z" fill="black"/>
<path d="M595.812 400.695L427.731 449.496V515.755L484.792 499.191C483.903 507.697 481.692 515.756 478.597 523.814C469.751 545.302 453.383 562.315 432.154 570.821C410.923 579.775 387.48 579.775 366.249 570.821C345.017 561.867 328.21 545.302 319.805 523.814C301.671 479.49 322.459 428.453 366.249 409.649C376.864 405.172 387.48 402.933 398.98 402.933H399.422C457.366 402.933 504.25 355.477 504.25 296.828C504.25 238.179 457.366 190.722 399.422 190.722C341.479 190.722 294.594 238.626 294.594 297.275C294.594 321.451 302.555 343.389 315.825 361.297C255.67 401.142 230.015 479.938 258.323 549.781C273.805 587.834 303.44 617.385 341.037 633.501C360.056 641.56 379.518 645.139 399.422 645.139C419.326 645.139 438.788 641.112 457.81 633.501C519.73 607.534 556.001 544.854 551.579 480.386L596.251 467.405V400.695H595.812ZM399.422 258.325C420.654 258.325 437.904 275.786 437.904 297.275C437.904 318.765 420.654 336.225 399.422 336.225H398.98C378.191 335.778 360.941 318.765 360.941 297.275C360.941 275.786 378.191 258.325 399.422 258.325Z" fill="#08080D"/>
</g>
<defs>
<clipPath id="clip0_1_944">
<rect width="496" height="452" fill="white"/>
</clipPath>
</defs>
</svg>
