<svg width="909" height="792" viewBox="0 0 909 792" fill="none" xmlns="http://www.w3.org/2000/svg">
<g opacity="0.2" filter="url(#filter0_f_229_5279)">
<path d="M454.5 699.064C639.239 699.064 789 549.304 789 364.564C789 179.825 639.239 30.0645 454.5 30.0645C269.761 30.0645 120 179.825 120 364.564C120 549.304 269.761 699.064 454.5 699.064Z" fill="url(#paint0_linear_229_5279)"/>
</g>
<g filter="url(#filter1_f_229_5279)">
<path d="M454.5 30.0644C567.627 30.0644 659.334 28.8024 659.334 27.2456C659.334 25.6888 567.627 24.4268 454.5 24.4268C341.373 24.4268 249.666 25.6888 249.666 27.2456C249.666 28.8024 341.373 30.0644 454.5 30.0644Z" fill="url(#paint1_linear_229_5279)"/>
</g>
<defs>
<filter id="filter0_f_229_5279" x="0" y="-89.9355" width="909" height="909" filterUnits="userSpaceOnUse" color-interpolation-filters="sRGB">
<feFlood flood-opacity="0" result="BackgroundImageFix"/>
<feBlend mode="normal" in="SourceGraphic" in2="BackgroundImageFix" result="shape"/>
<feGaussianBlur stdDeviation="60" result="effect1_foregroundBlur_229_5279"/>
</filter>
<filter id="filter1_f_229_5279" x="229.666" y="4.42676" width="449.668" height="45.6377" filterUnits="userSpaceOnUse" color-interpolation-filters="sRGB">
<feFlood flood-opacity="0" result="BackgroundImageFix"/>
<feBlend mode="normal" in="SourceGraphic" in2="BackgroundImageFix" result="shape"/>
<feGaussianBlur stdDeviation="10" result="effect1_foregroundBlur_229_5279"/>
</filter>
<linearGradient id="paint0_linear_229_5279" x1="266.344" y1="30.0682" x2="829.905" y2="139.745" gradientUnits="userSpaceOnUse">
<stop stop-color="#FBA9A5"/>
<stop offset="0.4375" stop-color="#EC7BFD"/>
<stop offset="1" stop-color="#557CF9"/>
</linearGradient>
<linearGradient id="paint1_linear_229_5279" x1="249.666" y1="27.2456" x2="658.77" y2="42.6006" gradientUnits="userSpaceOnUse">
<stop stop-color="#EE9FBA"/>
<stop offset="1" stop-color="#977CFC"/>
</linearGradient>
</defs>
</svg>
