<svg width="765" height="774" viewBox="0 0 765 774" fill="none" xmlns="http://www.w3.org/2000/svg">
<path d="M248.921 207.414C154.319 193.639 111.011 266.466 151.941 369.955C192.872 473.444 302.999 568.566 397.624 582.364C492.249 596.162 535.511 523.334 494.603 419.822C453.696 316.311 343.569 221.189 248.944 207.391" fill="black"/>
<path d="M248.921 207.414C154.319 193.639 111.011 266.466 151.941 369.955C192.872 473.444 302.999 568.566 397.624 582.364C492.249 596.162 535.511 523.334 494.603 419.822C453.696 316.311 343.569 221.189 248.944 207.391" stroke="black"/>
<path d="M278.813 177.545C184.211 163.771 140.903 236.598 181.834 340.086C222.764 443.575 332.891 538.697 427.516 552.495C522.141 566.293 565.403 493.466 524.496 389.954C483.589 286.442 373.461 191.32 278.836 177.522" fill="url(#paint0_linear_1_112)"/>
<path d="M462.319 431.663C458.497 434.841 452.82 434.321 449.639 430.502L321.754 276.951C318.573 273.132 319.093 267.459 322.915 264.281L330.43 258.032C334.252 254.854 339.929 255.374 343.11 259.194L470.994 412.744C474.175 416.563 473.656 422.236 469.834 425.414L462.319 431.663ZM410.548 474.712C406.726 477.89 401.049 477.37 397.868 473.55L269.984 320C266.803 316.181 267.322 310.508 271.144 307.33L278.659 301.081C282.481 297.903 288.158 298.423 291.339 302.242L419.224 455.793C422.405 459.612 421.885 465.285 418.063 468.463L410.548 474.712ZM371.186 388.522C367.364 391.7 361.687 391.18 358.506 387.36L343.063 368.819C339.882 364.999 340.402 359.327 344.223 356.149L365.07 338.814C368.891 335.636 374.568 336.156 377.749 339.976L393.192 358.518C396.373 362.337 395.854 368.01 392.032 371.188L371.186 388.522Z" fill="black"/>
<g opacity="0.2" filter="url(#filter0_f_1_112)">
<path d="M336 653.573C506.656 653.573 645 534.144 645 386.821C645 239.498 506.656 120.069 336 120.069C165.344 120.069 27 239.498 27 386.821C27 534.144 165.344 653.573 336 653.573Z" fill="url(#paint1_linear_1_112)"/>
</g>
<g filter="url(#filter1_f_1_112)">
<path d="M336.004 120.069C440.507 120.069 525.223 119.063 525.223 117.821C525.223 116.58 440.507 115.573 336.004 115.573C231.501 115.573 146.785 116.58 146.785 117.821C146.785 119.063 231.501 120.069 336.004 120.069Z" fill="url(#paint2_linear_1_112)"/>
</g>
<defs>
<filter id="filter0_f_1_112" x="-93" y="0.0693359" width="858" height="773.504" filterUnits="userSpaceOnUse" color-interpolation-filters="sRGB">
<feFlood flood-opacity="0" result="BackgroundImageFix"/>
<feBlend mode="normal" in="SourceGraphic" in2="BackgroundImageFix" result="shape"/>
<feGaussianBlur stdDeviation="60" result="effect1_foregroundBlur_1_112"/>
</filter>
<filter id="filter1_f_1_112" x="126.785" y="95.5732" width="418.438" height="44.4958" filterUnits="userSpaceOnUse" color-interpolation-filters="sRGB">
<feFlood flood-opacity="0" result="BackgroundImageFix"/>
<feBlend mode="normal" in="SourceGraphic" in2="BackgroundImageFix" result="shape"/>
<feGaussianBlur stdDeviation="10" result="effect1_foregroundBlur_1_112"/>
</filter>
<linearGradient id="paint0_linear_1_112" x1="189.371" y1="201.522" x2="516.486" y2="528.897" gradientUnits="userSpaceOnUse">
<stop offset="0.03125" stop-color="#DC8DDC"/>
<stop offset="0.489583" stop-color="#CDF9E8"/>
<stop offset="1" stop-color="#C0A9F0"/>
</linearGradient>
<linearGradient id="paint1_linear_1_112" x1="162.188" y1="120.072" x2="676.372" y2="235.988" gradientUnits="userSpaceOnUse">
<stop stop-color="#FBA9A5"/>
<stop offset="0.4375" stop-color="#EC7BFD"/>
<stop offset="1" stop-color="#557CF9"/>
</linearGradient>
<linearGradient id="paint2_linear_1_112" x1="146.785" y1="117.821" x2="524.521" y2="134.244" gradientUnits="userSpaceOnUse">
<stop stop-color="#EE9FBA"/>
<stop offset="1" stop-color="#977CFC"/>
</linearGradient>
</defs>
</svg>
