<svg width="765" height="774" viewBox="0 0 765 774" fill="none" xmlns="http://www.w3.org/2000/svg">
<g opacity="0.2" filter="url(#filter0_f_25_2081)">
<path d="M336 653.573C506.656 653.573 645 534.144 645 386.821C645 239.498 506.656 120.069 336 120.069C165.344 120.069 27 239.498 27 386.821C27 534.144 165.344 653.573 336 653.573Z" fill="url(#paint0_linear_25_2081)"/>
</g>
<g filter="url(#filter1_f_25_2081)">
<path d="M336.004 120.069C440.507 120.069 525.223 119.063 525.223 117.821C525.223 116.58 440.507 115.573 336.004 115.573C231.501 115.573 146.785 116.58 146.785 117.821C146.785 119.063 231.501 120.069 336.004 120.069Z" fill="url(#paint1_linear_25_2081)"/>
</g>
<defs>
<filter id="filter0_f_25_2081" x="-93" y="0.0693359" width="858" height="773.504" filterUnits="userSpaceOnUse" color-interpolation-filters="sRGB">
<feFlood flood-opacity="0" result="BackgroundImageFix"/>
<feBlend mode="normal" in="SourceGraphic" in2="BackgroundImageFix" result="shape"/>
<feGaussianBlur stdDeviation="60" result="effect1_foregroundBlur_25_2081"/>
</filter>
<filter id="filter1_f_25_2081" x="126.785" y="95.5732" width="418.438" height="44.4958" filterUnits="userSpaceOnUse" color-interpolation-filters="sRGB">
<feFlood flood-opacity="0" result="BackgroundImageFix"/>
<feBlend mode="normal" in="SourceGraphic" in2="BackgroundImageFix" result="shape"/>
<feGaussianBlur stdDeviation="10" result="effect1_foregroundBlur_25_2081"/>
</filter>
<linearGradient id="paint0_linear_25_2081" x1="162.188" y1="120.072" x2="676.372" y2="235.988" gradientUnits="userSpaceOnUse">
<stop stop-color="#FBA9A5"/>
<stop offset="0.4375" stop-color="#EC7BFD"/>
<stop offset="1" stop-color="#557CF9"/>
</linearGradient>
<linearGradient id="paint1_linear_25_2081" x1="146.785" y1="117.821" x2="524.521" y2="134.244" gradientUnits="userSpaceOnUse">
<stop stop-color="#EE9FBA"/>
<stop offset="1" stop-color="#977CFC"/>
</linearGradient>
</defs>
</svg>
