<svg width="517" height="463" viewBox="0 0 517 463" fill="none" xmlns="http://www.w3.org/2000/svg">
<rect x="158.635" y="9" width="348" height="341" rx="45" fill="white"/>
<path d="M479.933 110.663L480.164 36.7591L406.337 37.0674L406.337 49.7057L458.355 49.6286L390.925 117.059L399.941 126.075L467.371 58.645L467.371 110.74L479.933 110.663Z" fill="black"/>
<path d="M37.7028 351.702L37.4716 425.606L111.298 425.297L111.298 412.659L59.2805 412.736L126.711 345.306L117.694 336.289L50.2641 403.72L50.2641 351.625L37.7028 351.702Z" fill="white"/>
<path d="M330.635 255.763C330.635 264.357 326.748 273.159 319.416 281.607C312.086 290.054 301.4 298.038 288.075 304.932C261.428 318.719 224.5 328 183.635 328C142.771 328 105.843 318.719 79.1955 304.932C65.8703 298.038 55.1851 290.054 47.855 281.607C40.5231 273.159 36.6354 264.357 36.6354 255.763C36.6354 247.19 40.5046 238.876 47.7989 231.149C55.1032 223.411 65.7662 216.352 79.0943 210.38C105.746 198.438 142.705 191 183.635 191C224.566 191 261.525 198.438 288.176 210.38C301.505 216.352 312.168 223.411 319.472 231.149C326.766 238.876 330.635 247.19 330.635 255.763Z" fill="url(#paint0_linear_1_628)" stroke="black" stroke-width="4"/>
<path d="M330.635 203.763C330.635 212.357 326.748 221.159 319.416 229.607C312.086 238.054 301.4 246.038 288.075 252.932C261.428 266.719 224.5 276 183.635 276C142.771 276 105.843 266.719 79.1955 252.932C65.8703 246.038 55.1851 238.054 47.855 229.607C40.5231 221.159 36.6354 212.357 36.6354 203.763C36.6354 195.19 40.5046 186.876 47.7989 179.149C55.1032 171.411 65.7662 164.352 79.0943 158.38C105.746 146.438 142.705 139 183.635 139C224.566 139 261.525 146.438 288.176 158.38C301.505 164.352 312.168 171.411 319.472 179.149C326.766 186.876 330.635 195.19 330.635 203.763Z" fill="url(#paint1_linear_1_628)" stroke="black" stroke-width="4"/>
<path d="M330.635 144.5C330.635 162.744 314.934 179.865 288.139 192.543C261.498 205.149 224.552 213 183.635 213C142.719 213 105.773 205.149 79.1319 192.543C52.3372 179.865 36.6354 162.744 36.6354 144.5C36.6354 126.256 52.3372 109.135 79.1319 96.4568C105.773 83.8513 142.719 76 183.635 76C224.552 76 261.498 83.8513 288.139 96.4568C314.934 109.135 330.635 126.256 330.635 144.5Z" fill="url(#paint2_linear_1_628)" stroke="black" stroke-width="4"/>
<defs>
<linearGradient id="paint0_linear_1_628" x1="34.5838" y1="259.57" x2="332.635" y2="259.57" gradientUnits="userSpaceOnUse">
<stop offset="0.03125" stop-color="#DC8DDC"/>
<stop offset="0.489583" stop-color="#CDF9E8"/>
<stop offset="1" stop-color="#C0A9F0"/>
</linearGradient>
<linearGradient id="paint1_linear_1_628" x1="34.5838" y1="207.57" x2="332.635" y2="207.57" gradientUnits="userSpaceOnUse">
<stop offset="0.03125" stop-color="#DC8DDC"/>
<stop offset="0.489583" stop-color="#CDF9E8"/>
<stop offset="1" stop-color="#C0A9F0"/>
</linearGradient>
<linearGradient id="paint2_linear_1_628" x1="34.5838" y1="144.57" x2="332.635" y2="144.57" gradientUnits="userSpaceOnUse">
<stop offset="0.03125" stop-color="#DC8DDC"/>
<stop offset="0.489583" stop-color="#CDF9E8"/>
<stop offset="1" stop-color="#C0A9F0"/>
</linearGradient>
</defs>
</svg>
